<svg xmlns="http://www.w3.org/2000/svg" viewBox="0 0 500 500"><g id="freepik--background-complete--inject-198"><path d="M443.92,378.76H263.17a5.87,5.87,0,0,1-5.86-5.86V109.62a5.87,5.87,0,0,1,5.86-5.86H443.92a5.87,5.87,0,0,1,5.86,5.86V372.9A5.87,5.87,0,0,1,443.92,378.76ZM263.17,104a5.62,5.62,0,0,0-5.61,5.61V372.9a5.62,5.62,0,0,0,5.61,5.61H443.92a5.61,5.61,0,0,0,5.61-5.61V109.62a5.61,5.61,0,0,0-5.61-5.61Z" style="fill:#e0e0e0"></path><path d="M235.49,378.76H54.75a5.87,5.87,0,0,1-5.87-5.86V109.62a5.87,5.87,0,0,1,5.87-5.86H235.49a5.86,5.86,0,0,1,5.86,5.86V372.9A5.86,5.86,0,0,1,235.49,378.76ZM54.75,104a5.62,5.62,0,0,0-5.62,5.61V372.9a5.62,5.62,0,0,0,5.62,5.61H235.49a5.61,5.61,0,0,0,5.61-5.61V109.62a5.61,5.61,0,0,0-5.61-5.61Z" style="fill:#e0e0e0"></path><rect y="439.83" width="500" height="0.25" style="fill:#e0e0e0"></rect><rect x="51.67" y="454.09" width="16.06" height="0.25" style="fill:#e0e0e0"></rect><rect x="170.35" y="451.38" width="53.53" height="0.25" style="fill:#e0e0e0"></rect><rect x="68.73" y="463.38" width="36.25" height="0.25" style="fill:#e0e0e0"></rect><rect x="378.35" y="451.25" width="43.19" height="0.25" style="fill:#e0e0e0"></rect><rect x="430.45" y="451.25" width="6.33" height="0.25" style="fill:#e0e0e0"></rect><rect x="316.21" y="457.48" width="53.89" height="0.25" style="fill:#e0e0e0"></rect><circle cx="447.52" cy="127.18" r="19.46" transform="translate(20.38 311.58) rotate(-39.22)" style="fill:#f0f0f0"></circle><path d="M437,117.12l8.8,10.13,1.13-.66-2,2-2.73-3s-1.79,3.63-3.42,3.07,1-4.91,1-4.91l-4.4-4.6Z" style="fill:#e0e0e0"></path><path d="M462.31,128.49l-13.32.16-.64-1.11.11,2.64,4,0s-1.51,3.75,0,4.59,3-4,3-4l6.36.23Z" style="fill:#e0e0e0"></path><path d="M438.05,135.35s3.39-3.16,6.71-2,3.39,6.88,3.39,6.88l-.68.2s-.74-5.67-2.78-6.55-6.39,2.45-6.39,2.45Z" style="fill:#e0e0e0"></path><path d="M442,117.5l-.33-.71c.64-.3,1.73-1,1.87-1.62s-.69-1.64-1.24-2.16l.53-.56c.18.17,1.75,1.7,1.47,2.92S442.19,117.41,442,117.5Z" style="fill:#e0e0e0"></path><path d="M443.43,118.78c.14-.29,1.15-2.9,2.62-3.13a4.87,4.87,0,0,1,2.68.48l-.34.71a4.11,4.11,0,0,0-2.21-.38c-.76.12-1.61,1.65-2,2.63Z" style="fill:#e0e0e0"></path><path d="M445.86,114.6a3.55,3.55,0,0,1-.62-.38,3.91,3.91,0,0,1-1.19-3l.78,0a3.15,3.15,0,0,0,.9,2.36c.68.55,1.75.62,3.18.22l.21.75A4.93,4.93,0,0,1,445.86,114.6Z" style="fill:#e0e0e0"></path><circle cx="51.67" cy="183.47" r="21" transform="translate(-136.4 214.51) rotate(-83.64)" style="fill:#f0f0f0"></circle><path d="M36.69,178.64,50,184.36l.79-1.17-1,2.88-4.06-1.65s0,4.36-1.89,4.58-1.32-5.25-1.32-5.25l-6.43-2.41Z" style="fill:#e0e0e0"></path><path d="M66.66,177.82l-12.87,6.4-1.14-.79L54,185.94l3.94-1.87s.28,4.36,2.13,4.47,1-5.32,1-5.32l6.3-2.75Z" style="fill:#e0e0e0"></path><path d="M46.29,195.84s1.82-4.66,5.58-5.1,6.52,5.1,6.52,5.1l-.57.51s-3.37-5.16-5.77-5.06S47,196.66,47,196.66Z" style="fill:#e0e0e0"></path><path d="M41.75,176.66l-.65-.54c.49-.6,1.21-1.8,1.06-2.45s-1.44-1.28-2.22-1.52l.25-.79c.26.08,2.5.83,2.8,2.14S41.92,176.47,41.75,176.66Z" style="fill:#e0e0e0"></path><path d="M43.76,177.22c0-.35-.24-3.36,1.08-4.27a5.24,5.24,0,0,1,2.83-.79V173a4.62,4.62,0,0,0-2.32.66c-.69.48-.79,2.37-.72,3.5Z" style="fill:#e0e0e0"></path><path d="M44.17,172a3,3,0,0,1-.79-.08,4.21,4.21,0,0,1-2.56-2.36l.79-.31a3.36,3.36,0,0,0,2,1.87c.93.22,2-.21,3.2-1.27l.56.63A5.19,5.19,0,0,1,44.17,172Z" style="fill:#e0e0e0"></path><path d="M397.93,32.86a21.8,21.8,0,0,0-2.32-1.61h0a25.47,25.47,0,0,0-38.42,24.84,27.06,27.06,0,0,0,.6,3.21A25.48,25.48,0,1,0,403.68,39,24.91,24.91,0,0,0,397.93,32.86Z" style="fill:#f0f0f0"></path><path d="M382.18,45.16s-.74-4.16,1.62-5.95c3.06-2.29,6.7.57,6.7.57l-1.21.87s-3-2.1-4.78-.61c-2.2,1.85-1.46,5-1.46,5Z" style="fill:#e0e0e0"></path><path d="M373.94,50.31s-3.79-1.89-6.18-.11c-3.05,2.3-1.32,6.58-1.32,6.58l1.21-.86s-1.17-3.49.76-4.75c2.38-1.59,5.15,0,5.15,0Z" style="fill:#e0e0e0"></path><path d="M368.49,61.85s16.62-7.79,26.07-17.59c0,0,9.06,15.58-4.6,23.05S368.49,61.85,368.49,61.85Z" style="fill:#e6e6e6"></path><path d="M368.84,61.61S385,54,394.07,44.76a8.13,8.13,0,0,1,.22,2.59,10.48,10.48,0,0,1-1.46,1.79,1.47,1.47,0,0,1,0,.83c-.62,1.3-4.58,3.65-4.58,3.65a.92.92,0,0,1,.08.52c-.46,1.21-2.86,3-4.13,3a3.25,3.25,0,0,1-1.11-.57s.36.92.25,1.2c-.34.93-2.43,1.93-3.42,1.94a2.39,2.39,0,0,1-1-.44s-2.39,2-3.37,2.08a3.79,3.79,0,0,1-1.18-.38s-2.77,2-3.83,1.92C370,62.87,368.84,61.61,368.84,61.61Z" style="fill:#fff"></path><path d="M379.91,69.52a20.85,20.85,0,0,1,7.16-7.65c5.72-3.82,10.09-3.55,10.09-3.55s-.14,4.59-6.79,9.27A13.14,13.14,0,0,1,379.91,69.52Z" style="fill:#e0e0e0"></path><path d="M221.39,52.82a15.41,15.41,0,0,0-.67-1.87h0a18,18,0,0,0-32.21-1.48,20.71,20.71,0,0,0-1,2.09,18,18,0,0,0,33.36,13.28,18.18,18.18,0,0,0,1.26-6.13A17.57,17.57,0,0,0,221.39,52.82Z" style="fill:#f0f0f0"></path><path d="M207.32,53.44s1.28-2.7,3.37-2.76c2.69-.06,3.61,3.07,3.61,3.07h-1.05s-.87-2.43-2.5-2.3a3.74,3.74,0,0,0-2.86,2.24Z" style="fill:#e0e0e0"></path><path d="M200.49,53s-1.4-2.64-3.5-2.59c-2.69.06-3.45,3.23-3.45,3.23h1.05s.75-2.48,2.37-2.42a3.73,3.73,0,0,1,3,2.11Z" style="fill:#e0e0e0"></path><path d="M192.64,57.41s12.72,2.33,22.15.58c0,0-1.17,12.64-12.07,11.33S192.64,57.41,192.64,57.41Z" style="fill:#e6e6e6"></path><path d="M192.94,57.41s12.38,2.21,21.37.66a5.69,5.69,0,0,1-.94,1.58,7,7,0,0,1-1.57.42,1,1,0,0,1-.35.47c-.89.49-4.13.22-4.13.22s0,.26-.17.33a4.39,4.39,0,0,1-3.6,0,2.65,2.65,0,0,1-.41-.78s-.17.67-.34.78a3.37,3.37,0,0,1-2.76-.28,1.79,1.79,0,0,1-.41-.67,8.72,8.72,0,0,1-2.78-.18,3,3,0,0,1-.52-.71s-2.42,0-3-.47C193.06,58.59,192.94,57.41,192.94,57.41Z" style="fill:#fff"></path><path d="M196.05,66.48A14.66,14.66,0,0,1,203.29,65c4.84.15,7.24,2.09,7.24,2.09s-2,2.58-7.69,2.54A9.23,9.23,0,0,1,196.05,66.48Z" style="fill:#e0e0e0"></path><path d="M431.85,376.8a14.51,14.51,0,0,0,.08-2h0a18.35,18.35,0,1,0-1.59,7.72A17.54,17.54,0,0,0,431.85,376.8Z" style="fill:#f0f0f0"></path><path d="M418.6,372s2.2-2,4.15-1.27c2.52,1,2.18,4.21,2.18,4.21l-1-.4s.12-2.59-1.43-3.08a3.75,3.75,0,0,0-3.5,1Z" style="fill:#e0e0e0"></path><path d="M412.43,369.07s-.29-3-2.26-3.73c-2.51-1-4.42,1.68-4.42,1.68l1,.4s1.63-2,3.11-1.34a3.75,3.75,0,0,1,1.94,3.08Z" style="fill:#e0e0e0"></path><path d="M403.5,370.15s10.9,7,20.29,8.93c0,0-5.88,11.26-15.47,5.92S403.5,370.15,403.5,370.15Z" style="fill:#e6e6e6"></path><path d="M403.78,370.27S414.41,377,423.3,379a5.7,5.7,0,0,1-1.46,1.1,7.31,7.31,0,0,1-1.61-.2,1,1,0,0,1-.51.3c-1,.11-3.9-1.36-3.9-1.36s-.15.21-.28.24a4.42,4.42,0,0,1-3.36-1.32,2.6,2.6,0,0,1-.07-.88s-.42.56-.62.6a3.39,3.39,0,0,1-2.45-1.31,1.69,1.69,0,0,1-.12-.77,8.34,8.34,0,0,1-2.5-1.23,2.73,2.73,0,0,1-.22-.85s-2.25-.88-2.58-1.56C403.44,371.4,403.78,370.27,403.78,370.27Z" style="fill:#fff"></path><path d="M403.22,379.84a14.59,14.59,0,0,1,7.25,1.4c4.43,2,5.91,4.67,5.91,4.67s-2.79,1.65-8.07-.56A9.25,9.25,0,0,1,403.22,379.84Z" style="fill:#e0e0e0"></path><path d="M467,250.37a13.93,13.93,0,0,0-.68-1.87h0a17.95,17.95,0,0,0-32.2-1.48,20.79,20.79,0,0,0-1,2.09,18,18,0,1,0,34.63,7.14A17.73,17.73,0,0,0,467,250.37Z" style="fill:#f0f0f0"></path><path d="M452.88,251s1.28-2.69,3.36-2.75c2.7-.06,3.61,3.07,3.61,3.07H458.8s-.87-2.44-2.49-2.3a3.72,3.72,0,0,0-2.86,2.24Z" style="fill:#e0e0e0"></path><path d="M446.05,250.57s-1.4-2.64-3.5-2.6c-2.7.07-3.46,3.24-3.46,3.24h1.05s.76-2.48,2.38-2.42a3.73,3.73,0,0,1,3,2.11Z" style="fill:#e0e0e0"></path><path d="M438.2,255s12.72,2.33,22.15.58c0,0-1.18,12.65-12.08,11.34S438.2,255,438.2,255Z" style="fill:#e6e6e6"></path><path d="M438.49,255s12.39,2.21,21.37.67a5.74,5.74,0,0,1-.93,1.58,7.74,7.74,0,0,1-1.57.42.91.91,0,0,1-.36.46c-.88.5-4.12.23-4.12.23a.72.72,0,0,1-.17.33,4.37,4.37,0,0,1-3.61,0,2.22,2.22,0,0,1-.4-.78s-.17.68-.35.79a3.37,3.37,0,0,1-2.76-.28,1.73,1.73,0,0,1-.4-.68,8.44,8.44,0,0,1-2.78-.18,2.55,2.55,0,0,1-.52-.7s-2.42,0-3-.47C438.61,256.13,438.49,255,438.49,255Z" style="fill:#fff"></path><path d="M441.61,264a14.66,14.66,0,0,1,7.24-1.46c4.84.15,7.23,2.09,7.23,2.09s-1.95,2.58-7.68,2.54A9.27,9.27,0,0,1,441.61,264Z" style="fill:#e0e0e0"></path></g><g id="freepik--shadow-2--inject-198"><path d="M454,448.07c0,3.38-93.52,6.13-208.88,6.13s-208.87-2.75-208.87-6.13,93.51-6.14,208.87-6.14S454,444.68,454,448.07Z" style="fill:#f5f5f5"></path></g><g id="freepik--Tab--inject-198"><path d="M110.47,106.4V291.06a9.76,9.76,0,0,0,9.76,9.76h288.9a3.7,3.7,0,0,0,3.7-3.7v-192a5,5,0,0,0-4.95-5H116.67A6.21,6.21,0,0,0,110.47,106.4Z" style="fill:#407BFF"></path><path d="M110.47,106.4V291.06c0,5.39,4.37,9.76,10.93,9.72H410.3c.87,0,2.53-1.61,2.53-3.66v-192a5,5,0,0,0-4.95-5H116.67A6.21,6.21,0,0,0,110.47,106.4Z" style="fill:#fff;opacity:0.7000000000000001"></path><path d="M115.33,100.2H408.95a3.88,3.88,0,0,1,3.88,3.88V116.3a0,0,0,0,1,0,0H110.47a0,0,0,0,1,0,0V105.06a4.86,4.86,0,0,1,4.86-4.86Z" style="fill:#407BFF"></path><path d="M408.8,108.25a3.42,3.42,0,1,1-3.42-3.42A3.42,3.42,0,0,1,408.8,108.25Z" style="fill:#fff;opacity:0.30000000000000004"></path><path d="M399.08,108.25a3.42,3.42,0,1,1-3.42-3.42A3.42,3.42,0,0,1,399.08,108.25Z" style="fill:#fff;opacity:0.30000000000000004"></path><circle cx="385.93" cy="108.25" r="3.42" style="fill:#fff;opacity:0.30000000000000004"></circle><path d="M190.78,93.53H163.93a.5.5,0,0,1,0-1h26.85a.5.5,0,0,1,0,1Z" style="fill:#407BFF"></path><path d="M203.77,93.53h-5.6a.5.5,0,0,1,0-1h5.6a.5.5,0,0,1,0,1Z" style="fill:#407BFF"></path><circle cx="154.61" cy="154.45" r="15.03" transform="translate(-31.55 268.92) rotate(-76.56)" style="fill:#407BFF"></circle><path d="M158.76,151.14a4.15,4.15,0,1,1-4.15-4.15A4.15,4.15,0,0,1,158.76,151.14Z" style="fill:#fff"></path><path d="M146.94,161.06s15.08-.11,15,0a7.59,7.59,0,0,0-7.49-5.07C148.22,156,147.32,161.14,146.94,161.06Z" style="fill:#fff"></path><rect x="174.91" y="148.45" width="50.86" height="4.19" style="fill:#407BFF"></rect><polyline points="305.94 159.83 305.94 164.02 174.91 164.02 174.91 159.83" style="fill:#263238"></polyline><circle cx="154.61" cy="194.68" r="15.03" transform="translate(-70.67 299.79) rotate(-76.56)" style="fill:#407BFF"></circle><path d="M158.76,191.36a4.15,4.15,0,1,1-4.15-4.14A4.15,4.15,0,0,1,158.76,191.36Z" style="fill:#fff"></path><path d="M146.94,201.28s15.08-.11,15,0a7.6,7.6,0,0,0-7.49-5.06C148.22,196.22,147.32,201.36,146.94,201.28Z" style="fill:#fff"></path><rect x="174.91" y="188.67" width="50.86" height="4.19" style="fill:#407BFF"></rect><rect x="174.91" y="200.05" width="164.28" height="4.19" style="fill:#263238"></rect><circle cx="154.61" cy="236.16" r="15.03" transform="translate(-121.7 178.5) rotate(-45)" style="fill:#407BFF"></circle><path d="M158.76,232.84a4.15,4.15,0,1,1-4.15-4.14A4.15,4.15,0,0,1,158.76,232.84Z" style="fill:#fff"></path><path d="M146.94,242.76s15.08-.11,15,0a7.6,7.6,0,0,0-7.49-5.06C148.22,237.7,147.32,242.84,146.94,242.76Z" style="fill:#fff"></path><rect x="174.91" y="230.15" width="50.86" height="4.19" style="fill:#407BFF"></rect><rect x="174.91" y="241.53" width="164.28" height="4.19" style="fill:#263238"></rect><rect x="174.91" y="256.55" width="164.28" height="4.19" style="fill:#263238"></rect><path d="M326.45,153.81a6.44,6.44,0,0,1,2.6,2.44,6.77,6.77,0,0,1,.93,3.53,5.5,5.5,0,0,1-.8,3.18,2.52,2.52,0,0,1-2.2,1.15,2.26,2.26,0,0,1-1.27-.35,1.85,1.85,0,0,1-.72-1,3.17,3.17,0,0,1-2.81,1.36,3.68,3.68,0,0,1-1.92-.51,3.59,3.59,0,0,1-1.35-1.41,4.36,4.36,0,0,1-.48-2.07,4.2,4.2,0,0,1,.48-2,3.59,3.59,0,0,1,1.35-1.41,3.68,3.68,0,0,1,1.92-.51,3.73,3.73,0,0,1,1.49.28,2.91,2.91,0,0,1,1.12.83v-1h1.74v5.32a1.19,1.19,0,0,0,.22.81.75.75,0,0,0,.59.25,1.06,1.06,0,0,0,1-.73,5.22,5.22,0,0,0,.33-2.1,5.53,5.53,0,0,0-.76-2.92,5.15,5.15,0,0,0-2.11-2,6.71,6.71,0,0,0-3.13-.7,6.5,6.5,0,0,0-3.16.74,5.16,5.16,0,0,0-2.12,2.07,6,6,0,0,0-.75,3,6.12,6.12,0,0,0,.74,3,5.23,5.23,0,0,0,2.1,2.07,6.49,6.49,0,0,0,3.13.74,7.51,7.51,0,0,0,1.55-.17,6.48,6.48,0,0,0,1.48-.52l.42,1.25a6.28,6.28,0,0,1-1.62.55,9.64,9.64,0,0,1-1.83.19,7.86,7.86,0,0,1-3.87-.93,6.58,6.58,0,0,1-2.61-2.54,7.33,7.33,0,0,1-.93-3.69,7.09,7.09,0,0,1,.94-3.65,6.57,6.57,0,0,1,2.63-2.54,8,8,0,0,1,3.9-.93A8.13,8.13,0,0,1,326.45,153.81Zm-2.28,8.12a2.44,2.44,0,0,0,.65-1.81,2.41,2.41,0,0,0-.65-1.78,2.25,2.25,0,0,0-1.66-.65,2.21,2.21,0,0,0-1.67.66,2.44,2.44,0,0,0-.64,1.77,2.46,2.46,0,0,0,.64,1.8,2.18,2.18,0,0,0,1.67.68A2.22,2.22,0,0,0,324.17,161.93Z" style="fill:#263238"></path><path d="M338.78,159.94h2.11v1.42h-2.28l-.33,2.66h-1.42l.33-2.66h-2.64l-.33,2.66h-1.43l.33-2.66H331v-1.42h2.28l.36-2.79h-2.11v-1.42h2.29l.33-2.66h1.42l-.33,2.66h2.63l.32-2.66h1.43l-.33,2.66h2.09l0,1.42h-2.28Zm-1.42,0,.34-2.79h-2.62l-.36,2.79Z" style="fill:#263238"></path><path d="M350.12,163.07a4.45,4.45,0,0,1-2.69,1.07v1.75h-1.29v-1.73a8.51,8.51,0,0,1-2.18-.42,4.75,4.75,0,0,1-1.65-.88l.71-1.58a5.07,5.07,0,0,0,1.4.79,6.06,6.06,0,0,0,1.72.4v-3.13a11.33,11.33,0,0,1-1.85-.58,3.3,3.3,0,0,1-1.24-.94,2.54,2.54,0,0,1-.5-1.63,2.9,2.9,0,0,1,.92-2.16,4.3,4.3,0,0,1,2.67-1.06V151.2h1.29v1.73a7.66,7.66,0,0,1,1.71.3,5.77,5.77,0,0,1,1.46.66l-.64,1.58a6.6,6.6,0,0,0-2.53-.85v3.16a11.85,11.85,0,0,1,1.86.58,3.14,3.14,0,0,1,1.25.93,2.48,2.48,0,0,1,.51,1.63A2.85,2.85,0,0,1,350.12,163.07ZM345,156.92a3.37,3.37,0,0,0,1.17.53v-2.78a2.12,2.12,0,0,0-1.18.5,1.23,1.23,0,0,0-.39.92A1,1,0,0,0,345,156.92Zm3.68,5a1.13,1.13,0,0,0,.4-.89,1,1,0,0,0-.42-.85,3.75,3.75,0,0,0-1.2-.54v2.77A2.26,2.26,0,0,0,348.65,162Z" style="fill:#263238"></path><path d="M352.84,158.14a3.65,3.65,0,0,1,0-4.35,2.37,2.37,0,0,1,1.89-.82,2.42,2.42,0,0,1,1.9.82,3.17,3.17,0,0,1,.72,2.18,3.2,3.2,0,0,1-.72,2.18,2.45,2.45,0,0,1-1.9.82A2.38,2.38,0,0,1,352.84,158.14Zm2.88-.77a3,3,0,0,0,0-2.81,1.21,1.21,0,0,0-2,0,2.83,2.83,0,0,0,0,2.8,1.17,1.17,0,0,0,1,.5A1.13,1.13,0,0,0,355.72,157.37Zm5.57-4.3h1.53l-7.47,11h-1.53ZM360,163.3a3.65,3.65,0,0,1,0-4.35,2.58,2.58,0,0,1,3.79,0,3.61,3.61,0,0,1,0,4.35,2.58,2.58,0,0,1-3.79,0Zm2.88-.78a2.34,2.34,0,0,0,.36-1.39,2.38,2.38,0,0,0-.36-1.4,1.21,1.21,0,0,0-2,0,2.92,2.92,0,0,0,0,2.81,1.13,1.13,0,0,0,1,.5A1.15,1.15,0,0,0,362.89,162.52Z" style="fill:#263238"></path><path d="M366.33,163.78a1.19,1.19,0,0,1-.36-.87,1.13,1.13,0,0,1,.36-.86,1.25,1.25,0,0,1,.9-.35,1.23,1.23,0,0,1,.89.35,1.16,1.16,0,0,1,.35.86,1.22,1.22,0,0,1-.35.87,1.23,1.23,0,0,1-.89.35A1.25,1.25,0,0,1,366.33,163.78Zm-.25-10.71h2.31l-.39,7.32h-1.55Z" style="fill:#263238"></path><path d="M183.3,208.66v8.19h-1.53v-3.51h-4.23v3.51H176v-8.19h1.53V212h4.23v-3.38Z" style="fill:#263238"></path><path d="M190.81,215h-4.1l-.8,1.89h-1.57l3.68-8.19h1.5l3.7,8.19h-1.59Zm-.5-1.2-1.55-3.58-1.53,3.58Z" style="fill:#263238"></path><path d="M204.78,208.66v8.19h-1.52v-3.51H199v3.51H197.5v-8.19H199V212h4.24v-3.38Z" style="fill:#263238"></path><path d="M212.29,215H208.2l-.81,1.89h-1.57l3.69-8.19H211l3.7,8.19h-1.6Zm-.5-1.2-1.54-3.58-1.54,3.58Z" style="fill:#263238"></path><path d="M226.26,208.66v8.19h-1.52v-3.51H220.5v3.51H219v-8.19h1.52V212h4.24v-3.38Z" style="fill:#263238"></path><path d="M233.78,215h-4.1l-.81,1.89H227.3l3.69-8.19h1.5l3.7,8.19H234.6Zm-.51-1.2-1.54-3.58-1.54,3.58Z" style="fill:#263238"></path><path d="M237.09,216.67a.86.86,0,0,1-.27-.65.84.84,0,0,1,.27-.64,1,1,0,0,1,.68-.26.93.93,0,0,1,.66.26.83.83,0,0,1,.26.64.85.85,0,0,1-.26.65.89.89,0,0,1-.66.26A.92.92,0,0,1,237.09,216.67Zm-.19-8h1.73l-.29,5.48h-1.16Z" style="fill:#263238"></path><rect x="343.76" y="200.05" width="27.33" height="4.19" style="fill:#263238"></rect><rect x="343.76" y="241.53" width="11.83" height="4.19" style="fill:#263238"></rect></g><g id="freepik--shadows-1--inject-198"></g><g id="freepik--speech-bubbles--inject-198"><path d="M111.3,310.21A36.48,36.48,0,1,1,167,332.68l-1.57,10.84-10-5.8c-.2,0-.39.12-.59.16A36.47,36.47,0,0,1,111.3,310.21Z" style="fill:#407BFF"></path><path d="M108.08,289.59H108a.25.25,0,0,1-.18-.3,36.51,36.51,0,0,1,23.07-25.44.25.25,0,0,1,.32.15.26.26,0,0,1-.16.32,36,36,0,0,0-22.74,25.09A.26.26,0,0,1,108.08,289.59Z" style="fill:#407BFF"></path><path d="M106.45,300.28a.24.24,0,0,1-.25-.22,13.47,13.47,0,0,1,.56-5.46.26.26,0,0,1,.32-.16.25.25,0,0,1,.16.31,12.83,12.83,0,0,0-.54,5.26.25.25,0,0,1-.23.27Z" style="fill:#407BFF"></path><g style="opacity:0.30000000000000004"><path d="M111.3,310.21A36.48,36.48,0,1,1,167,332.68l-1.57,10.84-10-5.8c-.2,0-.39.12-.59.16A36.47,36.47,0,0,1,111.3,310.21Z" style="fill:#fff"></path></g><path d="M147.64,322.1a4.73,4.73,0,0,1-3.43-1.33,4.32,4.32,0,0,1-1.38-3.24,4.19,4.19,0,0,1,1.35-3.18,5.33,5.33,0,0,1,6.93,0,4.19,4.19,0,0,1,1.35,3.18,4.32,4.32,0,0,1-1.38,3.24A4.74,4.74,0,0,1,147.64,322.1Zm3.11-12.59h-6.22L143,286.58h9.33Z" style="fill:#fff"></path><path d="M59.72,359.42a30.91,30.91,0,1,1,49.51-11.83l4.24,8.26-9.77.92-.32.39A30.92,30.92,0,0,1,59.72,359.42Z" style="fill:#407BFF"></path><path d="M47.26,346.84a.24.24,0,0,1-.23-.16,31,31,0,0,1,3.44-28.94.26.26,0,0,1,.35-.06.25.25,0,0,1,.06.35,30.47,30.47,0,0,0-3.39,28.46.25.25,0,0,1-.14.33Z" style="fill:#407BFF"></path><path d="M51.38,355a.24.24,0,0,1-.19-.08,11.61,11.61,0,0,1-2.3-4.06.25.25,0,1,1,.48-.16,10.81,10.81,0,0,0,2.2,3.89.24.24,0,0,1,0,.35A.23.23,0,0,1,51.38,355Z" style="fill:#407BFF"></path><rect x="77.29" y="323.69" width="5.95" height="26.63" transform="translate(-219.54 163.43) rotate(-46.53)" style="fill:#fff"></rect><rect x="77.29" y="323.69" width="5.95" height="26.63" transform="translate(253.84 37.2) rotate(43.47)" style="fill:#fff"></rect><path d="M86.22,427.28a24.74,24.74,0,1,1,21-34.92l7.09,2.21-5,6.09c0,.14,0,.27,0,.41A24.74,24.74,0,0,1,86.22,427.28Z" style="fill:#407BFF"></path><path d="M71.9,427.45a.18.18,0,0,1-.1,0,24.85,24.85,0,0,1-14.63-18.22.25.25,0,0,1,.21-.29.25.25,0,0,1,.29.2A24.34,24.34,0,0,0,72,427a.26.26,0,0,1,.14.33A.24.24,0,0,1,71.9,427.45Z" style="fill:#407BFF"></path><path d="M78.89,429.69h0a9.21,9.21,0,0,1-3.63-1,.25.25,0,1,1,.23-.45,8.55,8.55,0,0,0,3.43.92.26.26,0,0,1,.24.26A.25.25,0,0,1,78.89,429.69Z" style="fill:#407BFF"></path><g style="opacity:0.6000000000000001"><path d="M86.22,427.28a24.74,24.74,0,1,1,21-34.92l7.09,2.21-5,6.09c0,.14,0,.27,0,.41A24.74,24.74,0,0,1,86.22,427.28Z" style="fill:#fff"></path></g><path d="M84.26,408.94a45.23,45.23,0,0,1-3.64-4s.94-2.35,1.86-4.68A10.16,10.16,0,0,0,81,397.55c-1.23-1.39-2.25-2.53-3.94-3a6.57,6.57,0,0,0-6.4,1c-1.9,1.53-2.21,4.35-1.65,6.73a16.7,16.7,0,0,0,3.66,6.54c3.13,3.6,5.92,6.33,9.65,8.33C83.33,413.2,84.47,409,84.26,408.94Z" style="fill:#407BFF"></path><path d="M97.05,395.35a6.57,6.57,0,0,0-6.4-1c-1.69.5-2.71,1.64-3.94,3a10.33,10.33,0,0,0-1.6,2.83l-.06-.16-1.87,4.68a46.68,46.68,0,0,0,3.64,4.05c.22.07-.92,4.26-2,8.17l.28.15c4.8-2.75,6.72-4.8,9.93-8.49a16.63,16.63,0,0,0,3.66-6.54C99.26,399.7,99,396.88,97.05,395.35Z" style="fill:#407BFF"></path></g><g id="freepik--Emojis--inject-198"><circle cx="97.09" cy="101.92" r="51.93" transform="translate(-5.37 198.44) rotate(-89.68)" style="fill:#407BFF"></circle><path d="M60,90l32.89,14.16,2-2.9-2.43,7.11-10.05-4.07s-.12,10.79-4.68,11.33-3.25-13-3.25-13l-15.91-6Z" style="fill:#263238"></path><path d="M134.16,87.92l-31.84,15.83-2.83-2,3.33,6.22,9.74-4.62s.7,10.77,5.28,11,2.53-13.14,2.53-13.14L136,94.48Z" style="fill:#263238"></path><path d="M83.78,132.51s4.5-11.53,13.81-12.62,16.12,12.62,16.12,12.62l-1.42,1.27S104,121,98,121.26s-12.52,13.28-12.52,13.28Z" style="fill:#263238"></path><path d="M72.54,85.06l-1.61-1.33c1.21-1.48,3-4.46,2.63-6.07S70,74.5,68.07,73.9l.62-2c.64.2,6.17,2,6.91,5.3S73,84.59,72.54,85.06Z" style="fill:#263238"></path><path d="M77.51,86.44c0-.86-.58-8.32,2.69-10.55a13,13,0,0,1,7-2V76a11.33,11.33,0,0,0-5.75,1.66c-1.69,1.17-1.94,5.84-1.77,8.64Z" style="fill:#263238"></path><path d="M78.52,73.57a8.55,8.55,0,0,1-2-.2,10.38,10.38,0,0,1-6.32-5.84l1.94-.78a8.35,8.35,0,0,0,4.89,4.64c2.28.54,5-.53,7.91-3.16l1.38,1.56A13,13,0,0,1,78.52,73.57Z" style="fill:#263238"></path><circle cx="438.39" cy="322.87" r="22.81" transform="translate(-69.73 518.45) rotate(-57.42)" style="fill:#407BFF"></circle><path d="M423.73,314.05l12.65,9.35,1.13-1-1.76,2.8-3.89-2.75s-1.13,4.6-3.13,4.38-.09-5.88-.09-5.88l-6.21-4.14Z" style="fill:#263238"></path><path d="M455.65,320.6l-15.21,3.58-1-1.12.8,3,4.63-1s-.78,4.67,1.15,5.25,2.4-5.37,2.4-5.37l7.35-1.36Z" style="fill:#263238"></path><path d="M429.63,334.63s3.08-4.49,7.17-4,5.64,7,5.64,7l-.74.4s-2.29-6.3-4.85-6.78-6.69,4.42-6.69,4.42Z" style="fill:#263238"></path><path d="M429.58,313.2l-.56-.73c.67-.51,1.73-1.6,1.73-2.33s-1.2-1.71-2-2.16l.46-.77c.26.15,2.44,1.49,2.43,3S429.8,313,429.58,313.2Z" style="fill:#263238"></path><path d="M431.56,314.29c.09-.37.59-3.61,2.21-4.24a5.68,5.68,0,0,1,3.19-.14l-.21.89a5,5,0,0,0-2.63.14c-.84.33-1.41,2.3-1.62,3.52Z" style="fill:#263238"></path><path d="M433.29,308.89a4.66,4.66,0,0,1-.82-.28,4.59,4.59,0,0,1-2.12-3.13l.91-.14a3.66,3.66,0,0,0,1.63,2.47c.92.46,2.17.27,3.7-.56l.43.81A5.69,5.69,0,0,1,433.29,308.89Z" style="fill:#263238"></path><path d="M345.41,69.39a33.22,33.22,0,0,0-1.6-4.45h0a42.69,42.69,0,0,0-76.6-3.53,46.74,46.74,0,0,0-2.31,5,42.71,42.71,0,1,0,82.37,17A41.7,41.7,0,0,0,345.41,69.39Z" style="fill:#407BFF"></path><path d="M345.41,69.39a33.22,33.22,0,0,0-1.6-4.45h0a42.69,42.69,0,0,0-76.6-3.53,46.74,46.74,0,0,0-2.31,5,42.71,42.71,0,1,0,82.37,17A41.7,41.7,0,0,0,345.41,69.39Z" style="fill:#fff;opacity:0.30000000000000004"></path><path d="M312,70.85s3-6.41,8-6.55c6.41-.15,8.59,7.3,8.59,7.3H326s-2.07-5.8-5.93-5.48c-4.8.39-6.8,5.33-6.8,5.33Z" style="fill:#263238"></path><path d="M295.69,69.85s-3.33-6.27-8.32-6.16c-6.41.16-8.22,7.68-8.22,7.68h2.5s1.79-5.89,5.65-5.74c4.81.16,7.05,5,7.05,5Z" style="fill:#263238"></path><path d="M277,80.29s30.27,5.54,52.7,1.38c0,0-2.8,30.07-28.73,27S277,80.29,277,80.29Z" style="fill:#263238"></path><path d="M277.73,80.29s29.46,5.26,50.83,1.59c0,0-1.32,3.12-2.22,3.75a17.71,17.71,0,0,1-3.73,1,2.4,2.4,0,0,1-.85,1.11c-2.11,1.17-9.81.53-9.81.53s-.13.61-.4.78c-1.8,1.2-6.86,1.38-8.59.11a5.83,5.83,0,0,1-1-1.85s-.4,1.6-.81,1.87c-1.36.94-5.21.27-6.57-.67a4.11,4.11,0,0,1-1-1.6s-5.17.36-6.61-.44a6.24,6.24,0,0,1-1.25-1.68s-5.75.08-7.1-1.1C278,83.1,277.73,80.29,277.73,80.29Z" style="fill:#fff"></path><path d="M285.14,101.88s6.53-3.79,17.22-3.47c11.52.35,17.21,5,17.21,5s-4.65,6.13-18.28,6A22,22,0,0,1,285.14,101.88Z" style="fill:#407BFF"></path><path d="M95.66,226.28a16.35,16.35,0,0,0-1.27-1.92h0a20.78,20.78,0,0,0-36.64,7.12,22.9,22.9,0,0,0-.52,2.62,20.79,20.79,0,1,0,40.92-1.41A20.31,20.31,0,0,0,95.66,226.28Z" style="fill:#407BFF"></path><path d="M95.66,226.28a16.35,16.35,0,0,0-1.27-1.92h0a20.78,20.78,0,0,0-36.64,7.12,22.9,22.9,0,0,0-.52,2.62,20.79,20.79,0,1,0,40.92-1.41A20.31,20.31,0,0,0,95.66,226.28Z" style="fill:#fff;opacity:0.30000000000000004"></path><path d="M80,230.81s.7-3.38,3-4c3-.8,4.9,2.47,4.9,2.47l-1.18.29s-1.64-2.51-3.43-1.91a4.3,4.3,0,0,0-2.61,3.3Z" style="fill:#263238"></path><path d="M72.2,232.2s-2.3-2.59-4.65-2c-3,.81-3,4.58-3,4.58l1.18-.29s.17-3,2-3.37a4.34,4.34,0,0,1,3.91,1.57Z" style="fill:#263238"></path><path d="M64.56,239.28s15-.85,25.09-5.39c0,0,2.12,14.55-10.5,16.05S64.56,239.28,64.56,239.28Z" style="fill:#263238"></path><path d="M64.9,239.2s14.54-.89,24.22-5.08a6.45,6.45,0,0,1-.62,2,8.22,8.22,0,0,1-1.65.9,1.09,1.09,0,0,1-.27.62c-.87.8-4.58,1.38-4.58,1.38a.75.75,0,0,1-.1.42,5.09,5.09,0,0,1-4.05,1,2.76,2.76,0,0,1-.67-.77s0,.81-.17,1c-.53.61-2.43.73-3.18.44a2,2,0,0,1-.64-.65,9.93,9.93,0,0,1-3.18.56,3.29,3.29,0,0,1-.78-.66s-2.71.7-3.48.29C65.35,240.49,64.9,239.2,64.9,239.2Z" style="fill:#fff"></path><path d="M70.88,248.56A16.83,16.83,0,0,1,78.62,245c5.49-1.16,8.72.37,8.72.37s-1.5,3.44-8,5A10.72,10.72,0,0,1,70.88,248.56Z" style="fill:#407BFF"></path></g><g id="freepik--Icon--inject-198"><g id="freepik--freepik--Icon--inject-53--inject-198"><path d="M442,205.52l-9.47-33.19-5.69.78h0c-2.2.09-14.83,1-22.94,1.66a19.12,19.12,0,0,0-17.68,18.69l-.31,15.81a8.66,8.66,0,0,0,8.22,8.87l2.72.13a26.15,26.15,0,0,0,8.35-1l7.61-2.16c-2.07,3.39-5.15,10.18-2.93,18.15,1.27,4.53,6.29,3.11,6.29,3.11s6-19.7,21-28.16Z" style="fill:#407BFF"></path></g><rect x="433.32" y="164.8" width="28.39" height="45.4" rx="3.13" transform="translate(-30.14 102.24) rotate(-12.61)" style="fill:#407BFF"></rect></g><g id="freepik--Character--inject-198"><path d="M400.93,278.32c-2.62-1.94-6.27-2.24-9.62-2.91-12.77-2.55-22.77-11.14-29.94-20.91S349.3,233.63,343,223.34c-2.87-4.65-6.15-9.26-11-12.16s-17.59-5.59-21.19,6.68L316.9,234c.07,8.71,3.6,16.85,7.67,24.44s-6.19-2.59-3.51,5.59c1.6,4.92,10.27,26.53,12,31.39S344.7,306.12,349.25,309c5.71,3.57,13.44,3.71,20.55,2.37a58.83,58.83,0,0,0,25.36-11.52c3.56-2.81,6.85-6.17,8.34-10.19S404.32,280.84,400.93,278.32Z" style="fill:#263238"></path><polygon points="239.45 286.81 235.88 303.8 256.89 307.68 256.89 295.13 239.45 286.81" style="fill:#b97964"></polygon><path d="M289.81,319.8c-2.36-.3-11.63,1.81-21.72,18.37-10.44,17.14-12.61,19-12.61,19l3.86-50.64-26.92-5.89c-.92.31-18.29,71.88-11.57,84.11s18.6,23.67,37.23,16.81C268.43,397.77,297,364,297,364Z" style="fill:#407BFF"></path><path d="M253.59,298.76s7.28.57,11.82-3.4,7.57-7.23,10.75-10.42-2.88-2.73-6.06-1.84-5.11,3.17-5.39.68,8.24-22.31,7.45-25.72-3.17-.64-3.17-.64,1.94-4.86.22-6.16c-.45-.33-2-.39-3.26,1.69-2.78,4.68-8.09,14.8-8.09,14.8.32-.58,6-13.54,6.58-15.59.78-2.68-.22-4.34-1.79-4.74-2.24-.57-9.81,15.26-10.6,15.7,0,0,4.67-9,3-11.44s-4.9,3-6.84,8.4c-1.78,4.93-6.56,14.13-7.89,19.32-1.63,6.39-1.29,11.05,3.54,14.93A21,21,0,0,0,253.59,298.76Z" style="fill:#b97964"></path><path d="M263.37,269.58h-.06a.13.13,0,0,1-.05-.17c1.95-3.6,3.85-7.91,5.61-12a.12.12,0,0,1,.23.09c-1.77,4.13-3.67,8.44-5.62,12A.11.11,0,0,1,263.37,269.58Z" style="opacity:0.30000000000000004"></path><g id="freepik--freepik--Character--inject-37--inject-198"><path d="M248.76,271.57c.4,2.88,2.33,6.28,3.44,9a53.92,53.92,0,0,0,11.61,16c.76-1.07-.77-5.36.1-6.46,1.74-2.24,3.5-4.27,5.21-6.1L256.73,266c-1.58,1.17-7.88-5.28-9.31-3.93C246.59,262.9,247.84,267.6,248.76,271.57Z" style="isolation:isolate;opacity:0.2"></path><path d="M425,441.93c-13-32.41-21.14-54.89-30.43-114.88-2.29-14.75-16-24.4-30.07-23.15-4,.36-17.36-1.3-40.57,4.28-16.95,4.08-36,11.75-36,11.75s-15,37.69.7,73.83c7.07,16.28,28.27,24.17,23.71,48.08Z" style="fill:#407BFF"></path></g><path d="M310.4,216.53c4.55-.88,9.25,1.3,12.55,4.55a15.54,15.54,0,0,1,4.54,7.91,10,10,0,0,1-2.22,8.63,7.39,7.39,0,0,1-8.46,1.72c-2.48-1.28-3.86-4.06-4.33-6.82s-.21-5.57-.33-8.35-.66-5.72-2.47-7.84" style="fill:#407BFF"></path><path d="M342.9,304.93a122.14,122.14,0,0,1-10.56,28.26,44.15,44.15,0,0,1-5.58,8c-5.78,6.64-9.3,6.85-12.43,4a30.77,30.77,0,0,1-2.95-3.27c-3.76-5.28-7.49-8.08-4.19-13.67,3.71-6.29,4.89-10.92,1.73-16.31a46.75,46.75,0,0,0-6.86-8.73l2.32-6.52,13.5-30.62C323,281.16,328.24,301.32,342.9,304.93Z" style="fill:#b97964"></path><path d="M309.58,313.2c4.67-5.91,8.93-14.67,5.41-21.49a35.55,35.55,0,0,0-4.65-7l-6.06,21A44.31,44.31,0,0,1,309.58,313.2Z" style="opacity:0.2"></path><path d="M315,239.94c6.58,23.39,9.85,33.12,2.72,49.43-10.72,24.54-40,28.87-53.21,8.25-11.9-18.55-20.66-53.68-2.11-71.67C280.66,208.23,308.41,216.55,315,239.94Z" style="fill:#b97964"></path><path d="M286.38,258.75c1.18,1.94,1.08,4.26-.21,5.19s-3.3.1-4.47-1.84-1.09-4.26.21-5.19S285.2,256.81,286.38,258.75Z" style="fill:#263238"></path><path d="M264.48,267.39c1.09,1.9.91,4.18-.4,5.07s-3.25.08-4.35-1.83-.92-4.18.39-5.08S263.38,265.48,264.48,267.39Z" style="fill:#263238"></path><path d="M279.74,247.33a1.12,1.12,0,0,1,.9-.1,8.74,8.74,0,0,0,8.18-1.23,1.09,1.09,0,0,1,1.6.16,1.29,1.29,0,0,1-.19,1.72,10.91,10.91,0,0,1-10.33,1.69,1.2,1.2,0,0,1-.71-1.53A1.28,1.28,0,0,1,279.74,247.33Z" style="fill:#263238"></path><path d="M263.87,254.36a1.09,1.09,0,0,1,.81.26,1.17,1.17,0,0,1,0,1.67,12.45,12.45,0,0,1-10.12,4.45,1.09,1.09,0,0,1-.94-1.31,1.29,1.29,0,0,1,1.38-1,10,10,0,0,0,8-3.61A1.28,1.28,0,0,1,263.87,254.36Z" style="fill:#263238"></path><path d="M310.79,257.8s-11-7.87-16-29.49a7,7,0,0,0-7.93-5.41c-10.47,1.84-28.21-5.47-34.76,25,0,0-3.79-34.14,45.29-37.36,31.58-2.08,29.3,39.2,26.54,44.21S310.79,257.8,310.79,257.8Z" style="fill:#263238"></path><path d="M328.87,255.74a19.47,19.47,0,0,1-7.71,12.74c-5.41,3.79-12.18-4.64-12.43-11.41a12.88,12.88,0,0,1,10.56-13C325.46,243.06,329.9,249.27,328.87,255.74Z" style="fill:#b97964"></path><path d="M271.87,263.54s-.3,9.81-2.27,16.61a1.87,1.87,0,0,0,1.84,2.35,12,12,0,0,0,6.09-2.22Z" style="fill:#a24e3f"></path><path d="M282.28,256.59,277,258.65S281.8,260.35,282.28,256.59Z" style="fill:#263238"></path><path d="M260.63,265.29l-5.36,1.94S260.07,269,260.63,265.29Z" style="fill:#263238"></path><path d="M291.24,211.25c-24.88-5.74-41.17,13.51-41.17,13.51-18.4,22.79.92,41.94.92,41.94,13.2-15.09,20-21.53,32.36-36.75-1.45,7.36,8.06,13.29,17.35,16.75s8.29,6.93,8.29,6.93C319.9,225.87,316.13,217,291.24,211.25Z" style="fill:#263238"></path><path d="M317.88,262.15a.25.25,0,0,1-.22-.12,12,12,0,0,1-1.75-5.95,7.73,7.73,0,0,1,1.43-5,4.57,4.57,0,0,1,4.81-1.67.26.26,0,0,1,.16.32.25.25,0,0,1-.31.16,4,4,0,0,0-4.27,1.51,7.28,7.28,0,0,0-1.32,4.66,11.5,11.5,0,0,0,1.68,5.7.26.26,0,0,1-.08.35A.31.31,0,0,1,317.88,262.15Z" style="opacity:0.2"></path><path d="M301.26,241.55c-.7,1.3-7.42,15.15-4,29.53a69.93,69.93,0,0,0,3,10L324,283.7l-1.71-4.88,5-17.83c-2.17-1.46-.78-7.79-1.39-14.87-1.42-1.67-9.7-5.07-10.44-4.56S301.26,241.55,301.26,241.55Z" style="isolation:isolate;opacity:0.2"></path><path d="M319.37,279.64s7-1.94,9.95-7.23S334,263,335.86,259s-3.64-1.59-6.32.33-3.72,4.73-4.84,2.48.13-23.78-1.78-26.71-3.2.48-3.2.48.17-5.23-1.89-5.86c-.54-.17-2,.32-2.49,2.7-1,5.34-2.55,16.67-2.55,16.67.1-.65,1-14.77.86-16.9-.18-2.79-1.69-4-3.3-3.84-2.3.22-4,17.69-4.59,18.37,0,0,1.32-10-1.08-11.78s-3.58,4.51-3.57,10.23c0,5.24-1.34,15.53-.81,20.86.65,6.56,2.56,10.83,8.42,12.82A21,21,0,0,0,319.37,279.64Z" style="fill:#b97964"></path><path d="M318.56,248.89h0a.11.11,0,0,1-.1-.14c.6-4,.91-8.74,1.16-13.21,0-.07.07-.11.13-.12a.12.12,0,0,1,.12.13c-.25,4.48-.57,9.18-1.17,13.24A.13.13,0,0,1,318.56,248.89Z" style="opacity:0.30000000000000004"></path><polygon points="302.02 286.86 303.2 271.57 322.56 274.31 322.71 290.51 302.02 286.86" style="fill:#b97964"></polygon><path d="M294.72,317.35s-11,51,1.55,57.87c2.48,1.37,10.35,5,18.61,3.64,33.47-5.46,66.7-25.23,71.08-37,.77-2.06-75.68,11.59-75.68,11.59Z" style="isolation:isolate;opacity:0.2"></path><path d="M382.41,308.7c-10.45-7.81-56,20.92-56,20.92l-1.33-47.24-24.38-3c-1,1.4-12.51,66.9-5.48,81.36s59.51-.17,82.5-7.45S399.66,321.61,382.41,308.7Z" style="fill:#407BFF"></path><path d="M282.73,289.24a11.79,11.79,0,0,1,11.11-6.7c1,0,1-1.45,0-1.5a13.28,13.28,0,0,0-12.41,7.44c-.41.87.89,1.63,1.3.76Z" style="fill:#263238"></path><path d="M326.25,329.57s20.1-18,35.82-18.81Z" style="isolation:isolate;opacity:0.2"></path><path d="M326.25,329.57s-.4,14.27-5.74,17.95a14.62,14.62,0,0,0,7.92-8.2,26.38,26.38,0,0,0,1.84-12.07Z" style="isolation:isolate;opacity:0.2"></path><g style="isolation:isolate;opacity:0.2"><path d="M286.83,289.11a3.69,3.69,0,0,0,3.55-1.88,4,4,0,0,1,.53.95,1.37,1.37,0,0,1,0,1.07,1.62,1.62,0,0,1-1,.72,4,4,0,0,1-2.93-.24"></path></g><g style="isolation:isolate;opacity:0.2"><path d="M264.8,274.25a4,4,0,0,1-4.22.65s1,2,2.79,1.5A1.84,1.84,0,0,0,264.8,274.25Z"></path></g><g style="isolation:isolate;opacity:0.2"><path d="M290.09,262.43a7.49,7.49,0,0,1-4.52,4.24,3,3,0,0,0,4.15-1.16A4.6,4.6,0,0,0,290.09,262.43Z"></path></g><path d="M283.79,378.8a264,264,0,0,0,0-26.65s-7.75,17.2-6.36,33.33Z" style="isolation:isolate;opacity:0.2"></path><path d="M255.48,357.19s.1,13.67-3.8,18.05c0,0,7.89-9,6.45-21.5Z" style="isolation:isolate;opacity:0.2"></path></g><g id="freepik--Device--inject-198"><path d="M148,440.74,115.9,371.8a3.85,3.85,0,0,1,3.37-5.52h97.78a3.71,3.71,0,0,1,3.4,2.26l30.36,68.94a3.84,3.84,0,0,1-3.4,5.44h-96A3.73,3.73,0,0,1,148,440.74Z" style="fill:#263238"></path><path d="M148,440.74,115.9,371.8a3.85,3.85,0,0,1,3.37-5.52h97.78a3.71,3.71,0,0,1,3.4,2.26l30.36,68.94a3.84,3.84,0,0,1-3.4,5.44h-96A3.73,3.73,0,0,1,148,440.74Z" style="fill:#fff;opacity:0.30000000000000004"></path><path d="M310.54,442.92H153a4,4,0,0,1-4-4h0a4,4,0,0,1,4-4H310.54a4,4,0,0,1,4,4h0A4,4,0,0,1,310.54,442.92Z" style="fill:#263238"></path><path d="M310.54,442.92H153a4,4,0,0,1-4-4h0a4,4,0,0,1,4-4H310.54a4,4,0,0,1,4,4h0A4,4,0,0,1,310.54,442.92Z" style="fill:#fff;opacity:0.30000000000000004"></path><path d="M183.69,401.22c2.2,2.76,2,6.66-.4,8.71s-6.16,1.48-8.36-1.28-2-6.66.4-8.71S181.5,398.46,183.69,401.22Z" style="fill:#fff"></path></g></svg>
